<svg width="1024" height="1024" viewBox="0 0 1024 1024" fill="none" xmlns="http://www.w3.org/2000/svg">
<g clip-path="url(#clip0_120_1015)">
<rect width="1024" height="1024" fill="#3943B7"/>
<path d="M891.026 1328.75C888.393 1342.98 883.949 1356.04 877.693 1367.92C860.425 1400.78 836.363 1428.3 805.507 1450.48C805.402 1450.55 805.316 1450.65 805.257 1450.76C805.198 1450.88 805.167 1451 805.167 1451.13C805.181 1451.81 805.479 1452.03 806.059 1451.79C805.422 1452 804.927 1452.25 804.573 1452.53C768.805 1481.08 728.721 1502.94 684.32 1518.11C683.187 1518.49 682.232 1519.07 681.454 1519.84C679.953 1520.08 678.856 1520.36 678.163 1520.67C671.567 1523.52 664.801 1525.94 657.866 1527.91C639.65 1533.1 621.271 1537.33 602.729 1540.58C572 1545.17 546.65 1547.92 526.679 1548.83C485.944 1550.69 442.724 1547.76 397.021 1540.03C378.167 1536.21 363.009 1532.78 351.544 1529.72C339.725 1526.56 325.047 1521.88 307.51 1515.7C274.8 1503.51 243.258 1488.37 212.884 1470.26C182.905 1452.42 160.613 1432.51 134.774 1407.03C84.0108 1356.94 53.5867 1297.71 29.4894 1228.8C16.8499 1192.7 7.25341 1157.99 0.700087 1124.66C-5.04646 1095.08 -9.16531 1067.58 -11.6564 1042.14C-16.95 988.185 -19.2854 932.019 -18.6627 873.644C-17.9408 806.288 -13.8503 739.29 -6.39109 672.652C-3.40458 640.219 0.268335 608.026 4.62778 576.072C13.6935 509.751 30.5298 441.782 62.5462 382.534C97.7049 317.458 150.719 273.595 221.588 250.946C221.744 250.896 221.886 250.81 222.002 250.696C222.118 250.581 222.204 250.441 222.255 250.288C222.304 250.135 222.316 249.973 222.289 249.815C222.262 249.658 222.196 249.51 222.098 249.384C202.162 223.011 164.71 158.885 208.743 134.962C229.953 123.455 257.278 132.26 276.747 143.028C297.822 154.698 317.234 168.289 334.983 183.801C335.088 183.902 335.225 183.962 335.371 183.972C335.516 183.981 335.66 183.939 335.777 183.853C335.894 183.767 335.977 183.642 336.01 183.501C336.044 183.36 336.026 183.212 335.96 183.083C329.548 168.246 326.739 153.009 327.531 137.369C328.529 117.817 340.228 101.01 360.164 98.1592C383.921 94.7386 408.486 109.329 426.256 124.764C459.079 153.29 483.452 192.374 504.938 230.549C505.45 231.464 506.172 232.244 507.043 232.824C507.915 233.405 508.911 233.768 509.949 233.885C564.654 240.332 617.541 250.798 668.609 265.283C725.954 281.542 779.605 301.939 827.948 337.517C885.994 380.232 923.828 447.251 936.736 517.078C940.671 538.375 942.313 562.925 941.662 590.726C940.671 633.463 936.396 677.184 928.838 721.892C928.816 722 928.828 722.113 928.872 722.215C928.915 722.318 928.989 722.404 929.084 722.464C929.178 722.523 929.288 722.553 929.4 722.549C929.511 722.544 929.619 722.507 929.709 722.441C991.279 678.226 1048.2 628.163 1103.06 577.466C1122.24 559.73 1140.34 541.838 1157.37 523.792C1212.51 465.41 1252.25 419.844 1309.41 353.564C1336.03 322.716 1383.16 287.559 1419.32 330.085C1436.81 350.65 1446.39 379.662 1450.19 406.436C1454.59 437.32 1454.65 469.485 1450.38 502.931C1447.35 526.621 1441.95 548.18 1434.18 567.605C1425.56 589.171 1414.99 608.8 1402.48 626.495C1402.43 626.571 1402.4 626.665 1402.4 626.76C1402.41 626.854 1402.45 626.944 1402.52 627.012C1402.58 627.081 1402.67 627.123 1402.77 627.133C1402.86 627.143 1402.96 627.119 1403.03 627.065C1413.65 620.224 1430.53 616.423 1442.04 621.026C1461.42 628.817 1466.9 653.395 1467.92 672.018C1468.19 676.762 1467.8 683.448 1466.77 692.077C1462.65 726.389 1449.7 760.806 1432.33 794.02C1413 830.999 1388.56 864.579 1359.02 894.759C1343.11 911.003 1325.05 924.341 1304.84 934.771C1304.72 934.834 1304.62 934.929 1304.56 935.046C1304.49 935.162 1304.45 935.294 1304.46 935.429C1304.46 935.563 1304.51 935.693 1304.58 935.804C1304.66 935.916 1304.76 936.004 1304.88 936.059C1311.11 938.846 1316.05 942.781 1319.7 947.863C1327.54 958.737 1324.88 979.577 1320.76 991.95C1307.01 1033.29 1278.22 1065.64 1243.21 1091.7C1173.59 1143.49 1091.64 1175.46 1005.48 1186.73C971.682 1191.15 938.067 1191.93 904.635 1189.06C892.236 1187.99 880.46 1186.02 869.306 1183.17C869.17 1183.13 869.028 1183.13 868.891 1183.16C868.754 1183.19 868.627 1183.26 868.52 1183.35C868.414 1183.44 868.331 1183.56 868.28 1183.69C868.228 1183.82 868.209 1183.96 868.223 1184.1C871.047 1212.35 874.359 1238.25 880.346 1267.75C883.297 1282.3 889.603 1308.31 891.026 1328.75ZM312.861 779.197L313.179 789.712C313.213 790.964 313.701 792.162 314.556 793.086C315.41 794.009 316.573 794.596 317.829 794.738C325.706 795.646 332.393 795.181 340.971 792.859C344.495 791.915 348.189 791 352.053 790.114C351.714 798.602 350.942 806.907 349.739 815.029C348.692 822.138 348.904 838.945 350.376 865.451C351.381 883.723 353.631 899.629 357.128 913.171C359.548 923.573 363.178 933.399 368.019 942.647C376.214 958.357 386.363 966.781 402.201 972.651C424.069 980.717 444.196 976.558 462.731 961.292C479.871 947.173 492.667 930.056 501.117 909.94C509.029 891.12 515.391 871.624 520.203 851.452C520.911 848.749 521.647 845.519 522.411 841.76C525.922 824.714 527.698 806.372 527.741 786.735C540.253 809.933 555.497 829.901 573.472 846.638C580.436 853.127 588.525 858.807 597.739 863.678C637.972 884.94 683.831 893.534 727.992 884.222C741.311 881.407 752.861 877.972 762.641 873.918C801.282 857.892 834.997 823.644 854.211 787.284C871.819 753.951 883.021 718.499 887.82 680.929C892.094 647.497 893.92 612.404 893.297 575.65C892.377 520.906 875.244 473.285 841.897 432.787C824.275 411.377 802.924 396.266 777.843 387.454C749.223 377.382 715.275 378.987 686.528 388.53C655.297 398.919 625.234 416.972 599.523 436.736C585.949 447.18 575.751 454.979 568.929 460.131C553.834 471.533 528.696 479.958 509.163 483.505C457.317 492.88 413.517 468.049 382.329 427.445C370.043 411.454 360.999 400.137 355.195 393.492C342.966 379.514 328.055 367.113 310.462 356.288C268.679 330.584 224.561 325.707 178.107 341.656C132.12 357.449 95.9639 393.26 75.3698 436.356C69.3826 448.912 63.4662 464.656 57.6206 483.589C43.8912 528.114 35.2996 572.877 31.8461 617.88C30.6288 633.716 30.4519 648.926 31.3153 663.509C32.0937 676.966 33.4242 686.834 35.3067 693.112C43.417 720.055 56.3255 749.235 73.4802 770.751C98.0871 801.642 135.433 826.368 175.835 830.126C221.057 834.321 261.135 822.722 296.067 795.329C299.124 792.936 304.722 787.559 312.861 779.197ZM340.567 1105L211.228 1092.63C210.914 1092.6 210.597 1092.63 210.299 1092.73C210.001 1092.83 209.728 1093 209.5 1093.21C209.272 1093.43 209.094 1093.69 208.978 1093.98C208.862 1094.26 208.811 1094.58 208.828 1094.89C209.954 1118.87 224.348 1140.24 244.645 1152.63C267.702 1166.71 289.938 1165.22 311.353 1148.16C324.927 1137.35 334.814 1123.19 341.013 1105.7C341.039 1105.62 341.048 1105.54 341.038 1105.46C341.029 1105.38 341.002 1105.31 340.959 1105.24C340.916 1105.17 340.859 1105.12 340.791 1105.08C340.723 1105.03 340.647 1105.01 340.567 1105ZM529.97 1123.73C529.939 1123.64 529.883 1123.56 529.808 1123.5C529.733 1123.44 529.642 1123.4 529.545 1123.39L379.845 1106.67C379.39 1106.62 378.934 1106.74 378.565 1107.01C378.197 1107.28 377.941 1107.68 377.849 1108.12C377.085 1111.67 377.198 1115.66 378.189 1120.08C383.836 1145.29 410.29 1172.04 434.77 1178.82C450.113 1183.07 464.352 1182.74 477.486 1177.85C502.341 1168.57 519.885 1151.52 530.118 1126.71C530.444 1125.87 530.394 1124.88 529.97 1123.73ZM422.116 1214.12L288.042 1202.59C287.503 1202.54 286.966 1202.71 286.546 1203.05C286.126 1203.39 285.855 1203.87 285.791 1204.41C285.352 1208.07 285.621 1211.72 286.598 1215.37C293.689 1241.87 315.43 1264.35 342.563 1270.12C379.824 1278.04 411.267 1249.26 423.644 1216.55C423.744 1216.29 423.782 1216.01 423.755 1215.73C423.728 1215.46 423.636 1215.19 423.488 1214.96C423.34 1214.72 423.139 1214.52 422.901 1214.38C422.663 1214.23 422.394 1214.14 422.116 1214.12Z" fill="#4867D2"/>
<path d="M527.74 786.735C526.622 779.908 525.929 771.842 525.66 762.538C525.575 759.539 524.98 758.336 523.876 758.927C521.966 742.232 518.186 727.79 512.539 715.599C495.611 679.071 466.347 658.082 424.748 652.635C399.038 649.278 368.55 664.164 351.119 680.696C339.23 691.944 329.739 707.125 322.648 726.241C316.293 743.358 313.03 761.01 312.861 779.197C304.722 787.559 299.124 792.936 296.067 795.329C261.135 822.722 221.057 834.321 175.835 830.126C135.432 826.368 98.087 801.642 73.4802 770.751C56.3255 749.235 43.4169 720.055 35.3067 693.112C33.4242 686.834 32.0937 676.966 31.3152 663.509C30.4518 648.926 30.6288 633.716 31.846 617.88C35.2996 572.877 43.8911 528.114 57.6206 483.589C63.4662 464.656 69.3826 448.912 75.3697 436.356C95.9639 393.26 132.12 357.449 178.107 341.656C224.561 325.707 268.679 330.584 310.461 356.288C328.055 367.113 342.966 379.514 355.195 393.492C360.999 400.137 370.043 411.454 382.329 427.445C413.517 468.049 457.317 492.88 509.163 483.505C528.696 479.958 553.833 471.533 568.929 460.131C575.751 454.979 585.949 447.18 599.523 436.736C625.234 416.972 655.297 398.919 686.528 388.53C715.275 378.987 749.223 377.382 777.843 387.454C802.924 396.266 824.275 411.377 841.897 432.787C875.244 473.285 892.377 520.906 893.297 575.65C893.92 612.404 892.094 647.497 887.819 680.929C883.021 718.499 871.818 753.951 854.211 787.284C834.997 823.644 801.282 857.892 762.641 873.918C752.861 877.972 741.311 881.407 727.992 884.222C683.831 893.534 637.972 884.94 597.739 863.678C588.525 858.807 580.436 853.127 573.472 846.638C555.496 829.901 540.253 809.933 527.74 786.735ZM246.216 748.538C285.515 733.695 315.09 697.441 330.079 659.075C361.437 578.881 352.86 465.22 253.498 436.123C245.07 433.653 233.308 432.323 224.688 432.977C190.867 435.553 156.557 450.27 134.435 475.714C103.324 511.553 86.5585 554.282 84.1382 603.902C83.2323 622.666 85.405 641.043 90.6561 659.033C101.201 695.083 122.29 722.131 153.925 740.177C165.46 746.779 177.024 750.953 188.616 752.698C193.853 753.486 203.556 753.733 217.724 753.437C228.708 753.198 238.205 751.565 246.216 748.538ZM571.455 628.247C566.806 670.878 574.725 718.914 600.818 754.493C619.14 779.472 652.855 805.147 685.572 807.491C776.102 813.994 830.644 739.163 838.096 657.196C838.111 657.013 838.125 656.914 838.139 656.9C838.139 656.872 838.146 656.773 838.16 656.604C848.478 574.932 811.282 490.241 721.432 477.361C688.969 472.715 650.52 490.621 627.251 511.144C594.13 540.367 576.084 585.616 571.455 628.247Z" fill="#507CDB"/>
<path d="M330.079 659.075C315.09 697.44 285.515 733.695 246.217 748.538C238.205 751.565 228.708 753.198 217.724 753.437C203.556 753.733 193.854 753.486 188.617 752.698C177.024 750.952 165.461 746.779 153.925 740.177C122.291 722.131 101.201 695.083 90.6564 659.032C85.4053 641.043 83.2326 622.666 84.1385 603.902C86.5588 554.282 103.324 511.552 134.435 475.713C156.558 450.27 190.867 435.553 224.688 432.977C233.308 432.322 245.07 433.653 253.499 436.123C352.86 465.219 361.438 578.881 330.079 659.075ZM181.483 587.622C177.088 614.67 179.912 646.131 199.19 666.317C207.668 675.185 217.434 680.506 228.489 682.28C239.543 684.054 250.491 682.062 261.333 676.304C286.046 663.171 298.679 634.18 303.073 607.153C307.447 580.105 304.623 548.644 285.345 528.437C276.881 519.583 267.115 514.262 256.047 512.474C244.992 510.701 234.044 512.7 223.202 518.471C198.51 531.604 185.857 560.574 181.483 587.622Z" fill="white"/>
<path d="M838.139 656.9C838.125 656.914 838.111 657.013 838.096 657.196C830.644 739.164 776.102 813.995 685.572 807.491C652.855 805.148 619.14 779.472 600.818 754.493C574.725 718.915 566.806 670.878 571.455 628.247C576.084 585.617 594.13 540.367 627.251 511.145C650.52 490.621 688.969 472.716 721.432 477.361C811.282 490.241 848.478 574.932 838.16 656.605C838.146 656.774 838.139 656.872 838.139 656.9ZM639.246 635.553C635.085 672.103 643.153 722.652 689.224 727.825C735.296 732.998 754.488 685.49 758.629 648.961C762.769 612.432 754.722 561.883 708.651 556.71C662.579 551.537 643.386 599.024 639.246 635.553Z" fill="white"/>
<path d="M256.046 512.475C267.115 514.263 276.881 519.583 285.345 528.438C304.623 548.645 307.447 580.106 303.073 607.154C298.678 634.181 286.046 663.171 261.333 676.305C250.491 682.062 239.543 684.054 228.488 682.28C217.434 680.507 207.668 675.186 199.189 666.318C179.912 646.132 177.088 614.671 181.483 587.623C185.856 560.574 198.51 531.605 223.202 518.471C234.044 512.7 244.992 510.701 256.046 512.475Z" fill="#17363D"/>
<path d="M708.651 556.71C754.722 561.883 762.769 612.432 758.629 648.961C754.489 685.489 735.296 732.998 689.224 727.825C643.153 722.652 635.085 672.103 639.246 635.553C643.386 599.024 662.579 551.537 708.651 556.71Z" fill="#17363D"/>
<path d="M523.877 758.927C518.441 767.901 508.548 774.953 499.716 780.717C479.928 790.585 458.563 793.823 435.619 790.43C427.24 789.177 418.896 787.636 410.587 785.806C401.345 783.751 389.519 783.378 375.11 784.687C366.094 785.222 358.409 787.031 352.053 790.114C348.189 791 344.495 791.915 340.971 792.858C332.393 795.181 325.706 795.646 317.829 794.738C316.573 794.596 315.41 794.009 314.556 793.086C313.702 792.162 313.213 790.964 313.179 789.712L312.861 779.197C313.031 761.01 316.293 743.358 322.648 726.241C329.739 707.125 339.23 691.944 351.119 680.696C368.55 664.163 399.038 649.278 424.749 652.635C466.347 658.082 495.611 679.071 512.539 715.599C518.187 727.79 521.966 742.232 523.877 758.927Z" fill="#FFB800"/>
<path d="M-25.5629 655L-6.39121 672.652C-13.8504 739.29 -17.9409 806.287 -18.6628 873.644C-19.2856 932.019 -16.9502 988.185 -11.6565 1042.14C-9.16543 1067.58 -5.04659 1095.08 0.699963 1124.66L-22.8241 1123.12C-22.1164 1120.24 -22.5127 1116.99 -24.0131 1113.36C-26.2635 1107.93 -27.4878 1104.87 -27.686 1104.18C-35.6689 1075.8 -39.2357 1048.69 -42.7813 1017.98C-44.5223 1002.82 -45.8032 986.981 -46.6241 970.455C-49.6106 910.278 -48.5137 851.431 -43.3334 793.914C-40.4884 762.397 -35.5911 724.017 -28.6414 678.775C-28.0894 675.199 -27.0703 670.378 -25.5841 664.311C-25.3152 663.185 -25.3577 661.644 -25.7115 659.687C-26.0371 657.801 -25.9875 656.238 -25.5629 655Z" fill="#3148A5"/>
<path d="M527.741 786.735C527.698 806.372 525.922 824.714 522.412 841.76C521.647 845.519 520.911 848.75 520.204 851.452C512.914 854.141 506.071 856.646 499.673 858.969C496.8 860.011 493.842 860.342 490.798 859.961C495.809 833.807 498.781 807.393 499.716 780.717C508.548 774.953 518.441 767.901 523.876 758.927C524.981 758.336 525.575 759.539 525.66 762.538C525.929 771.842 526.622 779.908 527.741 786.735Z" fill="#F27A00"/>
<path d="M499.715 780.717C498.781 807.392 495.809 833.807 490.798 859.961C490.02 861.468 489.446 862.312 489.078 862.495C472.504 865.536 459.086 871.244 448.824 879.619C430.481 894.632 422.328 915.282 416.256 937.622C416.073 938.294 415.994 938.984 416.022 939.67C416.15 942.246 415.718 943.935 414.727 944.738C396.235 938.91 386.341 922.609 379.505 905.738C377.141 899.981 375.485 893.984 374.537 887.749C372.527 874.503 371.614 861.179 371.798 847.778C372.067 827.001 373.171 805.971 375.11 784.687C389.519 783.378 401.345 783.751 410.587 785.806C418.896 787.636 427.239 789.177 435.619 790.43C458.562 793.823 479.928 790.585 499.715 780.717Z" fill="#AB2B00"/>
<path d="M375.11 784.687C373.171 805.971 372.067 827.001 371.798 847.778C371.614 861.179 372.527 874.502 374.536 887.748C375.485 893.984 377.141 899.981 379.505 905.738L357.127 913.171C353.631 899.629 351.38 883.723 350.375 865.451C348.903 838.945 348.691 822.138 349.739 815.029C350.942 806.907 351.713 798.602 352.053 790.113C358.408 787.031 366.094 785.222 375.11 784.687Z" fill="#F27A00"/>
<path d="M520.203 851.453C515.391 871.624 509.029 891.12 501.117 909.941C492.667 930.056 479.871 947.173 462.731 961.292C444.196 976.558 424.069 980.718 402.201 972.652C386.362 966.782 376.214 958.357 368.019 942.648C363.178 933.399 359.548 923.574 357.127 913.171L379.505 905.739C386.341 922.61 396.235 938.91 414.727 944.738C458.93 952.572 483.304 895.942 489.078 862.496C489.446 862.313 490.02 861.468 490.798 859.962C493.841 860.342 496.8 860.011 499.673 858.969C506.07 856.647 512.914 854.141 520.203 851.453Z" fill="#FFB800"/>
<path d="M489.078 862.495C483.304 895.941 458.93 952.571 414.727 944.738C415.718 943.935 416.15 942.246 416.022 939.67C415.994 938.984 416.073 938.294 416.256 937.622C422.328 915.282 430.481 894.632 448.824 879.619C459.086 871.244 472.504 865.536 489.078 862.495Z" fill="#F27A00"/>
<path d="M192.02 591.676C210.632 594.021 227.99 578.103 230.79 556.122C233.591 534.141 220.773 514.421 202.16 512.076C183.548 509.731 166.19 525.648 163.39 547.63C160.589 569.611 173.407 589.331 192.02 591.676Z" fill="white"/>
<path d="M653.004 632.407C671.765 632.407 686.973 614.446 686.973 592.289C686.973 570.132 671.765 552.171 653.004 552.171C634.242 552.171 619.034 570.132 619.034 592.289C619.034 614.446 634.242 632.407 653.004 632.407Z" fill="white"/>
<path d="M444.206 705.284C441.763 705.412 440.541 705.476 438.031 704.384C421.82 699.119 407.155 699.887 394.033 706.688C384.449 710.856 374.413 706.492 370.295 698.15C366.112 688.589 370.485 678.579 378.847 674.474C400.394 664.789 423.616 663.573 448.51 670.827C458.482 673.972 463.887 683.47 460.737 693.415C458.615 699.639 451.54 704.9 444.206 705.284Z" fill="#FBCC51"/>
<path d="M581.466 -115.646C603.582 -113.302 623.352 -110.872 640.777 -108.357C690.454 -101.205 742.626 -89.7234 792.115 -73.5909C815.959 -65.8141 838.428 -56.265 859.52 -44.9438C884.439 -31.5812 917.525 -6.96415 920.181 24.1827C927.339 107.87 766.466 116.07 715.068 117.208C660.751 118.41 609.558 115.914 557.204 110.356C504.85 104.799 454.282 96.4938 401.451 83.8996C351.439 71.9986 195.933 30.196 220.709 -50.0907C229.918 -79.9741 267.481 -97.1028 294.681 -104.933C317.696 -111.569 341.684 -116.183 366.644 -118.775C418.448 -124.156 471.868 -124.412 521.944 -120.976C539.522 -119.776 559.363 -117.999 581.466 -115.646ZM288.522 -32.7756C287.205 -20.7034 325.876 -3.62192 336.332 0.360904C353.016 6.71494 367.681 11.6526 380.325 15.1738C426.332 27.9979 474.105 37.6905 523.642 44.2518C533.277 45.5283 546.491 47.0662 563.282 48.8655C580.074 50.6535 593.314 51.9437 603.002 52.7361C652.818 56.8106 701.571 57.447 749.261 54.6452C762.378 53.8784 777.766 52.152 795.423 49.466C806.505 47.7936 847.93 39.2917 849.23 27.2177C850.529 15.1437 811.876 -1.93596 801.42 -5.91879C784.735 -12.2728 770.071 -17.2105 757.426 -20.7317C711.419 -33.5557 663.641 -43.249 614.093 -49.8115C604.457 -51.088 591.243 -52.6202 574.451 -54.4083C557.66 -56.2075 544.42 -57.5034 534.732 -58.2958C484.927 -62.3691 436.175 -63.0055 388.474 -60.2049C375.367 -59.4369 359.98 -57.7105 342.311 -55.0257C331.246 -53.3515 289.819 -44.8327 288.522 -32.7756Z" fill="#FCBE0B"/>
<path d="M924.333 287.317C927.423 288.639 930.865 289.3 934.66 289.3C938.596 289.289 940.69 285.872 941.679 282.424C942.628 279.073 944.009 272.729 945.821 263.391C946.362 260.596 947.245 258.48 948.471 257.043C953.563 251.108 962.093 245.518 970.195 245.775C974.999 245.925 980.713 245.795 987.337 245.382C993.416 245.008 1001.32 240.435 1000.26 233.627C999.695 229.989 998.108 227.426 995.493 225.935C991.951 223.9 986.359 221.506 978.718 218.752C974.809 217.349 969.894 215.17 967.846 213.011C960.769 205.528 958.658 197.615 958.509 187.359C958.41 180.145 958.279 175.221 956.84 169.667C956.679 169.044 956.349 168.476 955.887 168.023C952.963 165.19 949.353 163.959 945.057 164.33C941.642 164.623 938.794 167.766 937.929 170.542C934.06 182.842 930.998 190.902 928.744 194.723C926.927 197.816 923.756 200.729 919.229 203.462C918.424 203.946 917.529 204.266 916.597 204.402C911.501 205.135 905.308 205.733 898.019 206.198C892.185 206.566 885.295 208.481 882.91 214.906C880.596 221.113 884.662 226.66 890.391 229.019C894.102 230.543 898.336 232.153 903.091 233.849C907.364 235.381 910.575 237.088 912.723 238.971C921.563 246.709 923.169 256.131 921.857 267.728C921.2 273.572 920.456 280.636 923.184 286.228C923.424 286.715 923.832 287.101 924.333 287.317Z" fill="#FCBE0B"/>
<path d="M923.184 286.228C920.456 280.636 921.2 273.572 921.857 267.728C923.169 256.131 921.563 246.709 912.723 238.971C910.575 237.088 907.364 235.381 903.091 233.849C898.336 232.153 894.102 230.543 890.391 229.019C884.662 226.66 880.596 221.113 882.91 214.906C885.295 208.481 892.185 206.566 898.019 206.198C905.308 205.733 911.501 205.135 916.597 204.402C917.529 204.266 918.424 203.946 919.229 203.462C923.756 200.729 926.927 197.816 928.744 194.723C930.998 190.902 934.06 182.842 937.929 170.542C938.794 167.766 941.642 164.623 945.057 164.33C949.353 163.959 952.963 165.19 955.887 168.023C956.349 168.476 956.679 169.044 956.84 169.667C958.279 175.221 958.41 180.145 958.509 187.359C958.658 197.615 960.769 205.528 967.846 213.011C969.894 215.17 974.809 217.349 978.718 218.752C986.359 221.506 991.951 223.9 995.493 225.935C998.108 227.426 999.695 229.989 1000.26 233.627C1001.32 240.435 993.416 245.008 987.337 245.382C980.713 245.795 974.999 245.925 970.195 245.775C962.093 245.518 953.563 251.108 948.471 257.043C947.245 258.48 946.362 260.596 945.821 263.391C944.009 272.729 942.628 279.073 941.679 282.424C940.69 285.872 938.596 289.289 934.66 289.3C930.865 289.3 927.423 288.639 924.333 287.317C923.832 287.101 923.424 286.715 923.184 286.228Z" fill="#FCBE0B"/>
</g>
<defs>
<clipPath id="clip0_120_1015">
<rect width="1024" height="1024" fill="white"/>
</clipPath>
</defs>
</svg>
