<svg width="1434" height="373" viewBox="0 0 1434 373" fill="none" xmlns="http://www.w3.org/2000/svg">
<path d="M44.3057 118.519C44.4742 118.533 44.6438 118.512 44.8036 118.457C44.9633 118.403 45.1097 118.315 45.2331 118.201C45.3565 118.088 45.4542 117.949 45.52 117.796C45.5858 117.642 45.6182 117.476 45.615 117.31C45.3632 95.5476 47.8645 73.1476 58.4907 54.6432C63.2358 46.3817 68.5629 38.7974 74.472 31.8904C100.576 1.36321 142.862 -6.51208 180.331 5.12453C190.084 8.14703 199.703 14.6454 201.55 25.3081C203.732 37.8011 194.667 56.91 182.732 64.2647C179.659 66.1622 175.295 65.3394 171.266 63.7106C156.174 57.6153 138.733 61.6621 125.656 69.7557C110.279 79.2429 105.578 100.568 105.713 117.746C105.714 117.906 105.749 118.063 105.814 118.209C105.878 118.354 105.972 118.485 106.088 118.592C106.205 118.699 106.342 118.781 106.491 118.832C106.64 118.883 106.798 118.902 106.955 118.888C115.964 118.104 128.179 117.567 143.601 117.276C152.901 117.091 161.546 116.789 162.57 128.09C162.973 132.523 162.789 142.458 162.016 157.895C161.669 164.959 158.094 168.603 151.289 168.826C137.826 169.263 122.612 169.526 105.645 169.616C105.529 169.616 105.415 169.639 105.308 169.684C105.2 169.729 105.103 169.794 105.022 169.877C104.941 169.96 104.877 170.058 104.834 170.166C104.791 170.274 104.77 170.39 104.773 170.506C105.052 193.712 105.17 221.244 105.125 253.104C105.091 277.737 102.12 300.809 92.6187 324.183C81.724 351.066 56.8623 374.272 25.8903 372.946C20.6415 372.722 16.2545 371.379 12.7292 368.916C6.01443 364.214 1.83446 356.456 4.33573 348.128C5.0184 345.855 7.01606 343.219 10.3287 340.219C12.2088 338.517 16.2433 334.42 22.4322 327.927C32.2582 317.617 38.5925 305.315 41.4351 291.019C45.9844 268.149 45.4304 250.602 46.2026 221.183C46.6502 204.335 46.4824 187.555 45.699 170.841C45.6895 170.554 45.5832 170.278 45.3973 170.059C45.2114 169.839 44.9569 169.689 44.675 169.632C40.9706 168.86 37.3055 167.998 33.6795 167.047C12.7292 161.556 -2.49659 145.368 0.340422 122.901C0.46265 121.94 0.846702 121.03 1.45064 120.272C2.05458 119.514 2.85516 118.936 3.76497 118.603C5.7906 117.853 8.20235 117.444 11.0002 117.377C21.9229 117.108 33.0248 117.489 44.3057 118.519Z" fill="#1A77F2"/>
<path d="M774.995 166.358C767.927 166.089 756.277 167.282 754.649 158.214C753.619 152.55 752.892 144.837 752.467 135.075C751.795 120.131 763.596 118.687 774.928 117.158C775.24 117.117 775.526 116.961 775.728 116.721C775.93 116.482 776.034 116.176 776.019 115.866C775.884 111.69 775.907 102.303 776.086 87.7059C776.153 82.5789 776.59 77.4015 777.395 72.1736C782.314 40.2863 803.835 19.4311 835.445 13.5036C848.505 11.052 874.76 8.68437 885.453 17.9366C890.976 22.7054 890.422 41.0419 890.187 47.4395C889.835 56.3895 887.048 61.1919 878.386 62.5184C868.901 63.9625 860.105 60.8896 849.949 63.3748C839.491 65.9439 834.27 76.2036 833.615 86.0268C832.921 96.5607 832.742 106.462 833.078 115.731C833.095 116.192 833.29 116.627 833.622 116.947C833.954 117.266 834.397 117.444 834.857 117.444C845.165 117.455 858.857 117.382 875.935 117.226C884.329 117.158 888.811 122.532 888.576 130.86C887.804 157.156 855.17 166.358 834.371 166.324C834.208 166.324 834.047 166.356 833.898 166.418C833.748 166.48 833.612 166.571 833.498 166.685C833.384 166.799 833.294 166.934 833.234 167.082C833.173 167.231 833.143 167.39 833.145 167.55C833.257 242.62 833.279 283.026 833.212 288.769C833.145 295.167 832.675 304.654 824.718 305.41C814.534 306.384 802.884 306.496 789.767 305.746C782.65 305.359 776.808 303.009 776.791 295.469C776.69 268.782 776.662 231.258 776.707 182.898C776.707 177.849 776.573 172.761 776.304 167.634C776.287 167.295 776.143 166.976 775.9 166.739C775.657 166.502 775.334 166.366 774.995 166.358Z" fill="#1A77F2"/>
<path d="M948.824 17.5336H915.452C908.869 17.5336 903.533 22.8713 903.533 29.4557V294.025C903.533 300.609 908.869 305.947 915.452 305.947H948.824C955.407 305.947 960.743 300.609 960.743 294.025V29.4557C960.743 22.8713 955.407 17.5336 948.824 17.5336Z" fill="#1A77F2"/>
<path d="M629.367 132.221C629.354 132.37 629.386 132.52 629.46 132.65C629.533 132.781 629.645 132.886 629.78 132.952C629.915 133.017 630.066 133.04 630.214 133.018C630.363 132.995 630.5 132.928 630.61 132.825C651.515 112.194 676.455 105.975 705.429 114.17C716.039 117.175 726.715 125.89 732.943 136.351C741.975 151.514 744.157 168.02 744.157 185.92C744.168 221.06 744.185 257.027 744.207 293.823C744.219 301.48 740.324 305.477 732.524 305.813C719.452 306.395 707.455 306.378 696.532 305.762C687.769 305.275 686.712 296.577 686.729 289.609C686.852 234.431 686.857 201.548 686.745 190.958C686.51 169.901 674.843 160.867 654.346 162.815C633.9 164.746 631.566 181.722 631.164 198.816C630.962 207.067 630.789 236.351 630.643 286.67C630.61 295.335 630.66 305.527 619.06 305.947C606.727 306.395 594.663 306.238 582.867 305.477C582.421 305.443 581.976 305.359 581.541 305.225C575.934 303.467 573.064 299.382 572.929 292.967C572.873 290.784 572.834 206.406 572.812 39.8329C572.812 34.1013 573.427 29.103 574.658 24.8379C576.79 17.416 585.906 17.4664 593.074 17.4832C602.049 17.5056 610.997 17.6791 619.916 18.0037C631.516 18.4235 631.818 25.2577 631.852 34.7954C631.919 60.5426 631.449 88.2488 630.442 117.914C630.274 122.784 629.916 127.552 629.367 132.221Z" fill="#1A77F2"/>
<path d="M356.106 59.7322C353.526 79.3347 367.016 97.2776 386.236 99.8086C405.456 102.34 423.129 88.5006 425.709 68.8981C428.289 49.2955 414.799 31.3527 395.579 28.8216C376.359 26.2905 358.686 40.1296 356.106 59.7322Z" fill="#1A77F2"/>
<path d="M461.531 166.274C455.554 165.602 447.883 166.375 441.823 164.309C437.844 162.949 437.626 157.492 437.357 153.025C437.055 147.999 436.943 141.49 437.021 133.497C437.089 126.982 436.35 119.241 443.602 117.897C449.36 116.823 456.881 117.326 463.881 117.561C464.094 117.568 464.306 117.533 464.505 117.457C464.704 117.381 464.886 117.266 465.041 117.119C465.196 116.972 465.32 116.796 465.406 116.601C465.492 116.406 465.538 116.196 465.543 115.983C465.733 105.203 466.304 95.4132 467.255 86.6144C467.814 81.3194 471.021 78.6607 476.874 78.6384C487.259 78.6048 494.819 78.6048 499.553 78.6384C515.602 78.7559 515.031 88.7805 514.98 102.214C514.958 107.531 514.846 112.664 514.645 117.612C514.64 117.726 514.659 117.841 514.701 117.947C514.744 118.054 514.809 118.15 514.891 118.229C514.974 118.309 515.072 118.37 515.18 118.408C515.288 118.446 515.403 118.461 515.518 118.451C522.546 117.757 530.072 117.388 538.096 117.343C543.535 117.321 547.872 117.813 551.106 118.821C555.991 120.349 556.243 126.176 556.293 131.885C556.416 145.833 556.187 154.453 555.605 157.744C554.755 162.479 551.559 165.015 546.02 165.35C538.533 165.787 528.919 166.056 517.18 166.157C516.88 166.156 516.592 166.274 516.378 166.485C516.165 166.695 516.042 166.982 516.038 167.282C515.915 175.039 515.283 196.645 514.141 232.097C514.029 235.624 514.141 239.116 514.477 242.575C516.458 263.111 534.705 259.401 548.974 258.863C554.917 258.645 558.778 262.087 559.953 268.216C562.672 282.556 562.236 296.611 547.346 303.076C534.879 308.494 521.471 310.19 507.124 308.164C483.018 304.749 468.301 291.489 462.974 268.384C461.889 263.66 461.128 257.346 460.691 249.443C459.197 222.862 461.044 201.704 462.538 167.449C462.548 167.163 462.45 166.883 462.264 166.665C462.077 166.447 461.815 166.308 461.531 166.274Z" fill="#1A77F2"/>
<path d="M278.502 286.972C278.532 286.792 278.505 286.606 278.422 286.443C278.34 286.279 278.208 286.146 278.044 286.063C277.881 285.981 277.695 285.953 277.515 285.983C277.334 286.014 277.168 286.102 277.041 286.234C271.568 292.01 265.637 296.762 259.247 300.49C240.026 311.707 213.234 310.699 192.955 303.344C166.096 293.622 156.728 269.946 159.767 242.609C163.191 211.578 189.278 196.717 217.867 192.939C236.948 190.42 256.231 191.014 275.715 194.719C275.961 194.765 276.214 194.758 276.457 194.697C276.7 194.636 276.927 194.524 277.123 194.368C277.319 194.212 277.479 194.016 277.592 193.792C277.706 193.569 277.769 193.324 277.78 193.074C278.451 174.48 269.845 163.878 251.961 161.27C242.84 159.938 233.305 160.71 223.356 163.587C217.716 165.216 211.706 169.364 207.358 171.211C206.9 171.401 206.423 171.558 205.931 171.681C200.022 173.159 194.359 172.459 188.943 169.582C176.084 162.748 176.99 145.604 184.058 135.293C193.962 120.819 212.797 113.599 229.853 111.802C264.635 108.175 297.135 111.919 319.16 140.398C330.944 155.645 333.563 172.185 333.563 191.378C333.529 243.141 333.395 277.289 333.16 293.823C333.009 303.663 326.277 305.83 317.061 306.014C306.497 306.249 298.204 306.266 292.183 306.065C288.322 305.941 285.256 305.404 282.984 304.453C277.326 302.085 277.595 291.943 278.502 286.972ZM276.487 225.196C259.415 221.821 214.644 219.47 215.147 248.066C215.349 259.932 221.437 266.263 233.412 267.058C250.098 268.166 268.362 262.507 274.221 245.682C276.493 239.167 277.629 232.803 277.629 226.59C277.628 226.261 277.513 225.944 277.305 225.69C277.098 225.436 276.809 225.262 276.487 225.196Z" fill="#1A77F2"/>
<path d="M1168.99 211.528C1168.82 229.562 1164.74 246.656 1155.83 262.322C1131.97 304.301 1083.62 319.817 1038.7 304.05C1003.01 291.54 981.526 256.244 978.806 219.47C978.728 218.384 978.717 215.115 978.773 209.664C978.817 204.212 978.89 200.943 978.991 199.857C982.432 163.134 1004.61 128.275 1040.55 116.47C1085.76 101.576 1133.8 118.048 1156.82 160.464C1165.43 176.315 1169.17 193.493 1168.99 211.528ZM1034.67 209.865C1034.29 224.155 1038.03 239.402 1048.51 249.729C1059.85 260.912 1078.96 263.296 1092.47 254.262C1107.33 244.338 1111.22 229.108 1111.68 211.931C1112.13 194.753 1109.06 179.338 1094.75 168.625C1081.74 158.886 1062.54 160.246 1050.6 170.808C1039.59 180.564 1035.06 195.592 1034.67 209.865Z" fill="#1A77F2"/>
<path d="M407.543 117.075H374.708C367.782 117.075 362.168 122.69 362.168 129.618V293.538C362.168 300.466 367.782 306.081 374.708 306.081H407.543C414.469 306.081 420.083 300.466 420.083 293.538V129.618C420.083 122.69 414.469 117.075 407.543 117.075Z" fill="#1A77F2"/>
<path d="M1352.13 223.231C1352.89 222.616 1353.4 221.692 1353.66 220.461C1360.2 189.239 1367.81 158.41 1376.51 127.972C1379.11 118.905 1386.4 117.444 1395.11 117.276C1406.59 117.041 1415.45 117.175 1421.7 117.679C1426.86 118.104 1430.72 120.299 1433.28 124.261C1433.58 124.737 1433.77 125.269 1433.85 125.823C1434.17 127.972 1433.98 130.239 1433.3 132.624C1423.86 165.938 1416.58 192.407 1411.44 212.031C1405.78 233.642 1400.5 250.283 1393.46 272.481C1391.6 278.37 1389.7 283.81 1387.74 288.803C1383.93 298.542 1382.53 304.839 1372.01 305.897C1365.57 306.546 1355.33 306.619 1341.29 306.115C1334 305.858 1329.37 302.645 1327.39 296.477C1316.87 263.766 1308.33 235.803 1301.77 212.585C1301.26 210.783 1300.48 209.457 1299.46 208.606C1299.22 208.411 1298.94 208.278 1298.64 208.218C1298.34 208.157 1298.04 208.172 1297.75 208.261C1297.46 208.349 1297.19 208.508 1296.98 208.724C1296.77 208.94 1296.62 209.205 1296.53 209.496C1289.55 234.202 1281.74 260.414 1273.12 288.131C1270.72 295.838 1268.75 304.167 1261.25 305.343C1250.25 307.055 1239.16 306.518 1226.36 306.048C1215.5 305.662 1213.24 298.273 1209.9 288.467C1203.72 270.332 1194.3 239.754 1187.59 212.804C1182.51 192.385 1175.32 165.462 1166.02 132.036C1162.84 120.651 1173.57 117.108 1182.97 117.192C1193.6 117.293 1204.64 116.923 1211.74 118.2C1216.66 119.084 1219.9 122.179 1221.46 127.485C1230.08 156.804 1237.79 187.963 1244.6 220.964C1244.76 221.759 1245.08 222.386 1245.55 222.845C1245.78 223.062 1246.06 223.216 1246.36 223.291C1246.67 223.366 1246.99 223.359 1247.29 223.273C1247.59 223.186 1247.86 223.021 1248.07 222.796C1248.29 222.57 1248.44 222.292 1248.51 221.989C1256.33 189.698 1265.86 158.718 1275.05 126.327C1276.71 120.433 1282.55 117.948 1288.96 117.528C1300.48 116.778 1309.12 117.17 1314.9 118.703C1319.78 120.002 1322.95 123.433 1324.4 128.997C1332.22 158.936 1342.23 189.799 1349.06 217.925C1349.45 219.526 1349.94 221.144 1350.52 222.778C1350.58 222.933 1350.67 223.072 1350.79 223.184C1350.91 223.296 1351.05 223.378 1351.21 223.423C1351.37 223.467 1351.53 223.473 1351.69 223.44C1351.86 223.406 1352.01 223.335 1352.13 223.231Z" fill="#1A77F2"/>
</svg>
